<?xml version="1.0" standalone="no"?>
<!DOCTYPE svg PUBLIC "-//W3C//DTD SVG 20010904//EN"
 "http://www.w3.org/TR/2001/REC-SVG-20010904/DTD/svg10.dtd">
<svg version="1.0" xmlns="http://www.w3.org/2000/svg"
 width="305.000000pt" height="305.000000pt" viewBox="0 0 305.000000 305.000000"
 preserveAspectRatio="xMidYMid meet">
<metadata>
Created by potrace 1.11, written by Peter Selinger 2001-2013
</metadata>
<g transform="translate(0.000000,305.000000) scale(0.100000,-0.100000)"
fill="#000000" stroke="none">
<path d="M2160 2503 c-122 -17 -169 -94 -120 -200 l19 -43 -29 -1 c-17 0 -87
-1 -157 -1 -146 -1 -191 -12 -251 -64 -69 -59 -85 -106 -87 -260 -1 -74 1
-138 4 -143 9 -14 34 -15 65 -2 17 7 50 11 75 9 42 -3 48 -6 64 -40 25 -52 32
-112 31 -283 -1 -162 -18 -246 -55 -265 -10 -6 -40 -8 -66 -4 -27 3 -64 7 -83
8 l-35 1 1 -145 c0 -119 4 -151 18 -180 33 -63 63 -95 117 -125 l54 -29 565 0
c498 1 569 3 601 17 53 23 96 63 127 116 l27 46 3 567 c2 631 4 616 -66 692
-64 71 -97 80 -281 83 -89 1 -165 4 -168 6 -2 3 2 18 10 34 15 27 20 63 18
111 -1 33 -53 78 -98 87 -40 8 -259 14 -303 8z m288 -72 c15 -4 33 -19 40 -34
11 -23 9 -34 -13 -86 -27 -66 -32 -106 -12 -113 6 -3 94 -5 194 -6 172 0 185
-1 225 -24 26 -14 53 -41 71 -70 l30 -48 0 -547 c0 -479 -2 -552 -16 -583 -20
-44 -33 -60 -77 -90 l-35 -25 -548 -2 c-609 -2 -598 -3 -656 63 -39 43 -51 90
-51 192 l0 82 53 -3 c145 -11 191 75 191 358 0 289 -51 387 -191 371 l-53 -6
0 83 c0 129 29 190 107 228 38 18 62 21 228 22 228 1 225 -1 174 114 -21 48
-25 98 -7 109 26 16 80 22 196 22 68 0 136 -3 150 -7z"/>
<path d="M156 2190 c-67 -20 -128 -84 -146 -151 -4 -19 -8 -267 -8 -553 l1
-518 25 -49 c26 -54 68 -90 122 -108 20 -6 110 -11 208 -12 101 -1 172 -5 172
-10 0 -6 -10 -29 -21 -52 -21 -41 -29 -113 -15 -136 21 -33 68 -43 210 -43
146 -1 214 10 237 39 20 23 14 93 -10 141 -12 23 -21 46 -21 51 0 6 70 10 174
11 226 1 269 15 323 108 27 46 28 52 30 212 1 91 2 171 3 178 0 17 18 15 65
-8 22 -11 58 -19 81 -20 72 0 94 45 96 199 3 250 -36 300 -182 236 -30 -13
-57 -22 -58 -20 -2 2 -5 84 -6 182 -1 168 -3 180 -25 220 -27 47 -80 88 -132
103 -19 6 -109 10 -201 10 -191 0 -187 2 -144 -82 29 -58 23 -102 -17 -132
-26 -19 -43 -21 -178 -23 -162 -2 -205 5 -231 38 -22 26 -23 80 -3 119 9 17
20 41 25 55 l10 25 -178 -1 c-97 0 -190 -5 -206 -9z"/>
</g>
</svg>
